<?xml version="1.0" encoding="utf-8"?>
<!-- Generator: Adobe Illustrator 14.0.0, SVG Export Plug-In . SVG Version: 6.00 Build 43363)  -->
<!DOCTYPE svg PUBLIC "-//W3C//DTD SVG 1.1//EN" "http://www.w3.org/Graphics/SVG/1.1/DTD/svg11.dtd">
<svg version="1.1" id="Layer_1" xmlns="http://www.w3.org/2000/svg" xmlns:xlink="http://www.w3.org/1999/xlink" x="0px" y="0px"
	 width="320px" height="320px" viewBox="0 0 320 320" enable-background="new 0 0 320 320" xml:space="preserve">
<path d="M58.749,25v11.25v22.5v202.5h-11.25V58.75h-22.5v214.453c0,6.098,2.109,11.25,6.328,15.469S40.698,295,46.796,295h226.406
	c6.086,0,11.25-2.109,15.469-6.328s6.328-9.371,6.328-15.469V25H58.749z M171.984,193.349h-21.188l-42.03-87.837v87.837H89.141
	V58.653h20.494l42.724,89.95v-89.95h19.625V193.349z M265.857,81.439h-50.539v31.882h43.767v22.787h-43.767v57.241h-21.016V58.653
	h71.555V81.439z"/>
</svg>
